<?xml version="1.0" encoding="UTF-8"?>
<svg version="1.1" xmlns="http://www.w3.org/2000/svg" width="150" height="36">
<path fill="currentColor" d="M0 0 C0.33 1.32 0.66 2.64 1 4 C0.01 4.33 -0.98 4.66 -2 5 C-2 4.34 -2 3.68 -2 3 C-8.04588761 5.6107242 -10.65935871 8.51023761 -13.75 14.25 C-15.22655856 18.67967567 -15.28250333 22.3857789 -15 27 C-10.96409271 26.43497298 -8.87662848 26.04016438 -6.19921875 22.86328125 C-4.71894938 20.61284787 -3.3190419 18.34818448 -2 16 C-4.83967231 16 -7.23735711 16.40267181 -10 17 C-10 15.68 -10 14.36 -10 13 C-8.44240657 12.46467177 -6.87861955 11.94734622 -5.3125 11.4375 C-4.44238281 11.14746094 -3.57226562 10.85742188 -2.67578125 10.55859375 C0 10 0 10 5 11 C5 17.6 5 24.2 5 31 C3.68 31.33 2.36 31.66 1 32 C0.67 28.04 0.34 24.08 0 20 C-0.9075 21.44375 -1.815 22.8875 -2.75 24.375 C-4.81541311 27.6608845 -6.26804493 29.71038618 -10 31 C-13.625 30.8125 -13.625 30.8125 -17 30 C-20.01266857 25.48099715 -19.67138963 21.29498003 -19 16 C-16.83567995 9.41415059 -13.68187074 4.91417762 -8 1 C-5.29120665 -0.35439668 -2.99066732 -0.06501451 0 0 Z " fill="#FFFFFF" transform="translate(24,2)"/>
<path fill="currentColor" d="M0 0 C1.65234375 2.08984375 1.65234375 2.08984375 1.83984375 4.83984375 C-1.15022747 13.02319657 -8.1207037 17.76350481 -15.34765625 22.08984375 C-16.34765625 21.08984375 -16.34765625 21.08984375 -16.46118164 19.14038086 C-16.45332642 17.89140015 -16.45332642 17.89140015 -16.4453125 16.6171875 C-16.44208984 15.71806641 -16.43886719 14.81894531 -16.43554688 13.89257812 C-16.42716797 12.94705078 -16.41878906 12.00152344 -16.41015625 11.02734375 C-16.40564453 10.07794922 -16.40113281 9.12855469 -16.39648438 8.15039062 C-16.38465735 5.7968131 -16.3681765 3.44335898 -16.34765625 1.08984375 C-17.99765625 1.08984375 -19.64765625 1.08984375 -21.34765625 1.08984375 C-21.67765625 -0.23015625 -22.00765625 -1.55015625 -22.34765625 -2.91015625 C-15.12842434 -4.29847008 -5.98034158 -4.86586861 0 0 Z M-12.34765625 0.08984375 C-13.48843282 3.51217347 -13.44580742 6.17657592 -13.41015625 9.77734375 C-13.40113281 10.95683594 -13.39210938 12.13632812 -13.3828125 13.3515625 C-13.37121094 14.25519531 -13.35960937 15.15882812 -13.34765625 16.08984375 C-9.73518993 14.84882641 -7.540055 13.65857698 -5.09765625 10.71484375 C-4.5975 10.12960938 -4.09734375 9.544375 -3.58203125 8.94140625 C-2.27610977 6.98252403 -1.77328641 5.39027343 -1.34765625 3.08984375 C-5.18091242 0.38401587 -7.67303774 -0.23629243 -12.34765625 0.08984375 Z " fill="#FFFFFF" transform="translate(51.34765625,6.91015625)"/>
<path fill="currentColor" d="M0 0 C0 1.32 0 2.64 0 4 C-2.97851562 4.29296875 -2.97851562 4.29296875 -5.95703125 4.5859375 C-8.29988142 4.92665391 -8.29988142 4.92665391 -11 7 C-11.33 7.99 -11.66 8.98 -12 10 C-11.32453125 10.18175781 -10.6490625 10.36351562 -9.953125 10.55078125 C-9.06109375 10.80214844 -8.1690625 11.05351562 -7.25 11.3125 C-6.36828125 11.55613281 -5.4865625 11.79976562 -4.578125 12.05078125 C-1.94227495 13.02125331 -0.14592674 14.21005644 2 16 C1.5186722 22.37759336 1.5186722 22.37759336 -0.5625 24.875 C-4.16903474 26.5395545 -7.00437841 26.87315487 -11 27 C-13 25.5625 -13 25.5625 -14 24 C-13.67 23.34 -13.34 22.68 -13 22 C-10.03 22 -7.06 22 -4 22 C-3.67 20.35 -3.34 18.7 -3 17 C-3.85464844 16.65066406 -4.70929688 16.30132813 -5.58984375 15.94140625 C-6.69457031 15.48636719 -7.79929687 15.03132813 -8.9375 14.5625 C-10.03964844 14.11003906 -11.14179687 13.65757813 -12.27734375 13.19140625 C-15 12 -15 12 -16 11 C-16.375 8.6875 -16.375 8.6875 -16 6 C-13.75 3.8125 -13.75 3.8125 -11 2 C-10.38125 1.5875 -9.7625 1.175 -9.125 0.75 C-6.06540257 -0.32985792 -3.21288704 -0.12357258 0 0 Z " fill="#FFFFFF" transform="translate(70,2)"/>
<path fill="currentColor" d="M0 0 C6.20841525 -0.81689674 10.77804772 2.00057355 16 5 C17 6 17 6 17.0625 8.5625 C17.041875 9.366875 17.02125 10.17125 17 11 C13.70450534 12.72264494 10.66881155 14.29445932 7 15 C6.67 17.64 6.34 20.28 6 23 C4.68 23 3.36 23 2 23 C1.0750497 16.06287276 1.0750497 9.93712724 2 3 C1.34 3 0.68 3 0 3 C0 2.01 0 1.02 0 0 Z M6 4 C6 6.31 6 8.62 6 11 C9.465 10.505 9.465 10.505 13 10 C13 8.68 13 7.36 13 6 C10.69 5.34 8.38 4.68 6 4 Z " fill="#FFFFFF" transform="translate(111,10)"/>
<path fill="currentColor" d="M0 0 C0.99 0.33 1.98 0.66 3 1 C3 3.31 3 5.62 3 8 C5.31 7.34 7.62 6.68 10 6 C10 7.32 10 8.64 10 10 C7.69 10.33 5.38 10.66 3 11 C3.33 14.96 3.66 18.92 4 23 C2.68 23 1.36 23 0 23 C-0.33 19.37 -0.66 15.74 -1 12 C-2.98 12.33 -4.96 12.66 -7 13 C-7.33 12.01 -7.66 11.02 -8 10 C-4.535 9.505 -4.535 9.505 -1 9 C-1.020625 7.88625 -1.04125 6.7725 -1.0625 5.625 C-1 2 -1 2 0 0 Z " fill="#FFFFFF" transform="translate(136,4)"/>
<path fill="currentColor" d="M0 0 C2.125 0.9375 2.125 0.9375 4 2 C4 3.32 4 4.64 4 6 C2.68 5.67 1.36 5.34 0 5 C-1.96189209 8.6678852 -3.39301257 11.87248551 -4 16 C-0.73539027 14.19587357 0.88929795 13.16605307 3 10 C3.66 10 4.32 10 5 10 C4.52643877 14.26205106 2.15301808 16.28693793 -1 19 C-3.3125 19.8125 -3.3125 19.8125 -5 20 C-6.625 18.5625 -6.625 18.5625 -8 16 C-7.69966496 10.13790503 -5.61837444 5.52296805 -2 1 C-1.34 0.67 -0.68 0.34 0 0 Z " fill="#FFFFFF" transform="translate(81,8)"/>
<path fill="currentColor" d="M0 0 C2.625 0.375 2.625 0.375 5 1 C5 2.32 5 3.64 5 5 C4.236875 4.896875 3.47375 4.79375 2.6875 4.6875 C-0.12996999 4.71561899 -0.12996999 4.71561899 -1.75 6.9375 C-3.37865602 10.92770724 -3.72991747 14.72524545 -4 19 C-4.99 19 -5.98 19 -7 19 C-7.95619733 15.00204108 -8.1039592 11.29196078 -8.0625 7.1875 C-8.05347656 6.02605469 -8.04445313 4.86460938 -8.03515625 3.66796875 C-8.02355469 2.78753906 -8.01195313 1.90710937 -8 1 C-7.38125 1.165 -6.7625 1.33 -6.125 1.5 C-4.03936614 2.07634644 -4.03936614 2.07634644 -2 2 C-1.34 1.34 -0.68 0.68 0 0 Z " fill="#FFFFFF" transform="translate(96,9)"/>
<path fill="currentColor" d="M0 0 C0.99 0.33 1.98 0.66 3 1 C3.33 6.61 3.66 12.22 4 18 C2.68 18 1.36 18 0 18 C-0.19384179 15.18780295 -0.38036603 12.37545804 -0.5625 9.5625 C-0.61857422 8.76005859 -0.67464844 7.95761719 -0.73242188 7.13085938 C-0.8616295 5.08937889 -0.9351273 3.04453631 -1 1 C-0.67 0.67 -0.34 0.34 0 0 Z " fill="#FFFFFF" transform="translate(104,9)"/>
<path fill="currentColor" d="M0 0 C0.99 0.66 1.98 1.32 3 2 C3 2.66 3 3.32 3 4 C1.35 3.67 -0.3 3.34 -2 3 C-2 2.34 -2 1.68 -2 1 C-1.34 0.67 -0.68 0.34 0 0 Z " fill="#FFFFFF" transform="translate(104,2)"/>
</svg>
